<?xml version="1.0" standalone="no"?>
<!DOCTYPE svg PUBLIC "-//W3C//DTD SVG 20010904//EN"
 "http://www.w3.org/TR/2001/REC-SVG-20010904/DTD/svg10.dtd">
<svg version="1.0" xmlns="http://www.w3.org/2000/svg"
 width="500.000000pt" height="500.000000pt" viewBox="0 0 500.000000 500.000000"
 preserveAspectRatio="xMidYMid meet">
<metadata>
Created by potrace 1.14, written by Peter Selinger 2001-2017
</metadata>
<g transform="translate(0.000000,500.000000) scale(0.100000,-0.100000)"
fill="#000000" stroke="none">
<path d="M2626 3529 c-38 -11 -73 -45 -86 -83 -8 -26 -67 -297 -75 -346 -5
-32 -14 -80 -55 -275 -17 -82 -33 -160 -36 -171 -2 -12 -13 -66 -25 -120 -11
-55 -22 -110 -25 -124 -2 -14 -7 -38 -11 -55 -4 -16 -8 -34 -9 -40 -22 -109
-81 -394 -104 -505 -49 -230 -47 -276 15 -319 43 -29 84 -33 133 -11 53 24 64
48 96 205 14 72 28 139 30 150 3 11 19 88 36 170 17 83 33 157 35 166 2 9 6
32 9 50 6 37 9 50 25 122 6 26 14 64 17 85 3 20 8 40 10 43 2 4 6 24 9 45 4
22 9 48 12 59 3 11 7 29 8 40 2 11 17 87 34 168 18 81 38 180 46 220 8 40 28
137 46 217 17 80 31 161 31 181 0 91 -80 153 -166 128z"/>
<path d="M750 3334 c-19 -8 -44 -27 -55 -42 -20 -26 -20 -43 -21 -786 0 -716
1 -761 18 -795 22 -44 68 -69 119 -66 48 4 76 20 99 58 19 30 20 53 20 330 0
163 2 297 4 297 3 0 145 -140 317 -311 171 -170 324 -316 338 -323 75 -39 171
14 184 100 9 61 -23 101 -327 402 -163 161 -298 297 -301 302 -3 4 134 147
304 316 324 323 337 340 324 408 -14 71 -109 123 -175 95 -18 -7 -167 -148
-345 -326 -172 -172 -315 -313 -318 -313 -3 0 -5 130 -4 290 1 284 0 290 -22
321 -22 31 -73 59 -106 58 -10 0 -34 -7 -53 -15z"/>
<path d="M4137 3331 c-66 -46 -62 -23 -67 -353 l-5 -301 -321 321 c-349 348
-347 347 -429 320 -74 -24 -109 -121 -68 -186 10 -15 151 -161 315 -325 164
-165 298 -301 298 -303 0 -3 -134 -139 -298 -302 -164 -163 -306 -308 -315
-322 -20 -28 -22 -91 -5 -123 14 -28 59 -67 78 -68 8 -1 26 -3 40 -4 14 -2 39
3 55 11 17 8 170 154 340 324 l310 310 5 -303 c5 -295 6 -303 28 -334 22 -32
78 -56 112 -49 49 10 70 21 91 49 l24 32 1 760 c1 594 -2 766 -12 790 -25 61
-125 92 -177 56z"/>
</g>
</svg>
